<svg width="313" height="359" fill="none" xmlns="http://www.w3.org/2000/svg"><path clip-rule="evenodd" d="M186.029 149.98c6.617 4.785 7.759 14.822 10.509 23.156 2.559 7.749 5.151 15.301 4.921 23.578-.271 9.74.532 21.764-6.348 27.612-6.93 5.896-16.687-1.076-25.337-.661-7.83.369-16.305 7.945-22.786 2.961-6.552-5.038-3.395-16.927-6.252-25.301-2.635-7.721-10.448-13.323-9.741-21.568.718-8.364 7.629-14.004 13.26-19.48 5.496-5.341 11.533-9.74 18.605-11.486 7.745-1.903 16.488-3.631 23.169 1.189Z" stroke="#fff"/><path clip-rule="evenodd" d="M196.35 125.591c10.688 7.722 12.553 23.897 17.012 37.326 4.15 12.5 8.348 24.661 7.994 38.003-.417 15.691.909 35.06-10.182 44.462-11.172 9.478-26.93-1.78-40.895-1.143-12.635.583-26.297 12.762-36.771 4.712-10.589-8.133-5.516-27.284-10.147-40.783-4.27-12.442-16.891-21.485-15.768-34.763 1.139-13.48 12.282-22.553 21.357-31.349 8.859-8.59 18.592-15.664 30.001-18.449 12.5-3.054 26.602-5.815 37.399 1.984Z" stroke="#fff"/><path clip-rule="evenodd" d="M206.349 101.965c14.634 10.571 17.195 32.686 23.311 51.058 5.688 17.088 11.445 33.739 10.972 51.964-.557 21.47 1.27 47.944-13.898 60.796-15.28 12.946-36.855-2.463-55.964-1.599-17.292.779-35.977 17.418-50.316 6.401-14.493-11.142-7.573-37.315-13.92-55.777-5.853-17.024-23.132-29.404-21.608-47.561 1.548-18.432 16.788-30.816 29.201-42.843 12.113-11.734 25.43-21.397 41.042-25.192 17.097-4.167 36.403-7.92 51.18 2.753Z" stroke="#fff"/><path clip-rule="evenodd" d="M215.38 80.617c18.197 13.145 21.393 40.625 29.001 63.456 7.079 21.251 14.243 41.936 13.662 64.592-.684 26.672 1.602 59.571-17.254 75.536-18.992 16.081-45.82-3.081-69.576-2.025-21.499.96-44.721 21.633-62.554 7.931-18.023-13.849-9.43-46.368-17.328-69.312-7.285-21.16-28.77-36.554-26.882-59.113 1.916-22.897 20.86-38.289 36.286-53.225 15.057-14.578 31.606-26.58 51.014-31.29 21.258-5.169 45.254-9.826 63.631 3.45Z" stroke="#fff"/><path clip-rule="evenodd" d="M223.765 60.8c21.506 15.534 25.292 48.001 34.286 74.977 8.369 25.099 16.84 49.536 16.159 76.3-.801 31.508 1.908 70.384-20.369 89.232-22.439 18.994-54.145-3.655-82.217-2.4-25.404 1.124-52.839 25.536-73.915 9.338-21.3-16.365-11.154-54.779-20.493-81.883-8.61-25.003-34.005-43.195-31.779-69.843 2.26-27.055 24.64-45.233 42.861-62.868 17.789-17.218 37.342-31.392 60.275-36.95 25.119-6.09 53.475-11.587 75.192 4.098Z" stroke="#fff"/><path clip-rule="evenodd" d="M232.473 40.22c24.942 18.01 29.336 55.655 39.772 86.932 9.71 29.098 19.536 57.438 18.75 88.467-.919 36.538 2.229 81.6-23.602 103.457-26.017 22.015-62.789-4.255-95.343-2.815-29.459 1.299-61.27 29.6-85.713 10.814-24.702-18.978-12.944-63.516-23.78-94.944-9.99-28.985-39.441-50.087-36.865-80.983 2.615-31.36 28.566-52.435 49.696-72.88 20.628-19.952 43.297-36.383 69.889-42.821 29.129-7.055 62.009-13.425 87.196 4.772Z" stroke="#fff"/><path clip-rule="evenodd" d="M243.115 15.059c29.139 21.05 34.282 65.021 46.477 101.555 11.35 33.995 22.834 67.097 21.923 103.338-1.071 42.673 2.615 95.315-27.56 120.841-30.389 25.702-73.356-4.982-111.384-3.31-34.415 1.513-71.576 34.554-100.133 12.615-28.863-22.176-15.133-74.193-27.795-110.905-11.678-33.862-46.087-58.507-43.082-94.602 3.05-36.63 33.364-61.238 58.047-85.112C83.7 36.175 110.184 16.995 141.25 9.47c34.025-8.237 72.437-15.663 101.864 5.588Z" stroke="#fff"/></svg>