<svg width="203" height="193" fill="none" xmlns="http://www.w3.org/2000/svg"><path d="M18.576 159.474a6.362 6.362 0 0 0-3.507-3.237c-.86-.384-.764-1.242-.757-1.9a2.755 2.755 0 0 0-.207-1.622 1.064 1.064 0 0 1 .18-.994 15.177 15.177 0 0 1 1.998-1.87 33.188 33.188 0 0 1 9.065-3.878 70.594 70.594 0 0 1 9.758-2.521c1.04-.155 1.036-.175 1.486 1.044-1.801.407-3.612.75-5.383 1.236-1.406.385-2.763.944-4.267 1.468a1.222 1.222 0 0 0 1.329.233 50.212 50.212 0 0 1 9.192-2.524l.276.833-.459.311 1.035.279-.13 2.007c-.416.496-1.49.496-1.863 1.396-1.006-.303-1.748.447-2.609.695-.986.336-1.95.734-2.886 1.192-.08.621-.117 1.092-.207 1.552-.314 1.62-.352 1.564-1.488 2.322-1.259.84-2.817 1.226-3.81 2.479a.395.395 0 0 1-.327.12c-1.03-.231-1.552.241-2.059 1.132-.423.748-1.329.748-2.17.562-.646-.143-1.311-.196-2.19-.321M174.745 49.352c-.872.985-.872.985.154 1.917.06.846-.728 1.646-.202 2.542a23.677 23.677 0 0 0-1.216 2.22c-.524 1.25-1.704 1.65-2.747 2.154-.704.343-1.418.709-2.161.996-.869.336-1.69.795-2.558 1.134-.787.306-1.607.528-2.417.77-.22.094-.463.123-.7.084a1.561 1.561 0 0 0-1.433.178c-.943.54-2.022.187-3.022.194a8.528 8.528 0 0 1-2.791-.725c-.346-.124-1.089-.374-.324-1.006.054-.044-.164-.395-.223-.613-.06-.218-.193-.627-.113-.681.941-.63.479-.97-.134-1.539-.903-.837-.735-1.155-.073-2.572.404-.863.691-1.814 1.614-2.135 2.505-.861 5.001-1.76 7.766-1.232a4.371 4.371 0 0 0 3.353-.473c.881-.591 1.983-.846 2.637-1.802.197-.288.639-.42.985-.592a3.197 3.197 0 0 1 2.314-.255c.872.22.88.963 1.288 1.434M71.376 151.948c1.173-.678 2.288-1.214 3.284-1.919 2.854-2.029 6.235-2.44 9.494-3.233 1.462-.356 2.842.231 4.215.633.237.07.381.464.58.725l-1.96.411 2.556.689a6.67 6.67 0 0 0 .363 1.652 1.447 1.447 0 0 1-.145 1.452 5.7 5.7 0 0 1-1.21 1.167 5.239 5.239 0 0 0-3.873-.083c.001.63-.599 1.21-.155 1.96a.784.784 0 0 1-.157.718c-1.252 1.205-2.178 2.849-4.145 3.099-.355.044-.807.078-1.019.303-.32.338-.893-.198-1.101.476-.17.554-.645.043-.982.06a8.755 8.755 0 0 1-1.254.049 6.872 6.872 0 0 1-1.12-.287 11.866 11.866 0 0 0-3.729-4.304l.356-3.567M200.379 19.074c.374.467.69.838.976 1.23.097.159.165.333.199.515.128.507-.652.634-.48 1.21.154.454.205.936.152 1.412-.063.376-.648.8-.558 1.034.198.523.223.81-.305 1.077-.097.05-.108.325-.111.497-.03 1.275-.029 1.274-1.358 1.604l.788.534c-.455.07-.915.109-1.375.116a9.614 9.614 0 0 1-1.475-.245 3.216 3.216 0 0 0-1.54-.119l1.751.667-.044.195a9.706 9.706 0 0 1-.982-.16c-1.622-.426-3.224-.94-4.862-1.283a6.213 6.213 0 0 1-3.63-2.015c.37-.223.883-.392.277-.924-.662-.582-.443-1.169.114-1.854-.795-.353-1.755-.674-1.076-1.964l2.066.556.129-.26-1.968-1.237c.575-.506 1.142-.893 1.984-.56.235.093.576-.119.87-.137 1.281-.078 1.282-.069 1.572-1.043.056-.186.1-.374.15-.561l.137-.514c.6-.347 1.169-.651 1.713-.996a5.278 5.278 0 0 1 3.706-.546c.638.09 1.239.394 1.876.472.606.13 1.14.488 1.492 1 .78.866.719 1.207-.191 2.298M156.321 124.558c-.329-.946-.668-1.863-.943-2.799-.027-.09.33-.293.621-.538a6.968 6.968 0 0 1-.746-.742 11.443 11.443 0 0 1-.591-1.002c-.402-.674-.871-1.347.163-1.905.078-.043.064-.242.111-.361.33-.851.333-1.746 1.271-2.439a20.988 20.988 0 0 1 2.263-1.837 9.822 9.822 0 0 1 2.557-1.145 6.602 6.602 0 0 1 4.318-.009c.393.25.755.545 1.078.881l-1.262.904c.93.578 2.121.832 2.763 2.011l-1.184.937 1.362.367a16.263 16.263 0 0 1-.398 3.739 2.82 2.82 0 0 1-1.169 1.586c-.653.517-1.364.956-2.118 1.309-.752.253-1.44.69-2.22.956a24.055 24.055 0 0 1-3.896.573 5.206 5.206 0 0 1-1.98-.486ZM141.798 35.442l-4.018-1.082a9.71 9.71 0 0 0 2.97 1.165c.409.118.971.063 1.082.63.143.58.196 1.179.158 1.775-.024.2-.572.44-.897.47a3.606 3.606 0 0 1-1.12-.278c.047.346.148.572.086.732-.13.332-.572.718-.491.927.456 1.168-.299 2.11-.512 3.132a1.797 1.797 0 0 1-1.012 1.19c-1.053.292-1.62 1.3-2.841 1.58a2.69 2.69 0 0 0-1.779.115 3.898 3.898 0 0 1-3.211.171 11.893 11.893 0 0 0-1.768-.493c-.416-1.483-.796-3.013-1.279-4.51-.504-1.565.398-2.624 1.294-3.6.655-.712 1.155-1.77 2.386-1.741 1.327-1.625 3.364-1.43 5.1-2.022a7.964 7.964 0 0 1 3.412.027c.907.078 1.746.962 2.616 1.487l-.176.325ZM111.846 66.317l3.249-1.878c.705.15 1.398.349 2.076.594.257.11.425.57.506.9.031.126-.297.335-.465.514.465.417 1.151.773.728 1.647a.762.762 0 0 0-.091.544 1.834 1.834 0 0 1 .174 1.703 7.635 7.635 0 0 1-1.998 2.72 13.963 13.963 0 0 1-6.116 2.6 21.32 21.32 0 0 1-4.113.136 1.876 1.876 0 0 1-1.61-1.184c-.461-1.264-.992-2.51-1.409-3.789a2.346 2.346 0 0 1-.016-1.426 5.815 5.815 0 0 1 2.265-3.206 5.794 5.794 0 0 1 3.783-1.032c.471-.08.953-.074 1.423.018.578.32 1.119.702 1.614 1.14M43.008 52.802l1.185.08c-1.49-.401-1.625-2.133-2.8-2.817a.77.77 0 0 1-.117-1.18c.53-.343.314-.732.215-1.033a1.72 1.72 0 0 1 .527-1.952c1.703-1.688 3.328-3.465 5.784-4.069 1.148-1.215 2.82-1.21 4.24-1.771a9.495 9.495 0 0 1 2.378-.292c.621.728.217 1.432-.485 2.228.374.083.76.098 1.14.043.403-.161.464.144.486.302.026.729.19 1.446.483 2.114.092.161-.055.516-.186.726-.232.375-.585.654-.338 1.206.069.156-.25.52-.435.75a11.937 11.937 0 0 1-5.928 4.45c-.4.17-.78.389-1.13.648-1.04.653-2.258.5-3.307.938a1.513 1.513 0 0 1-1.707-.37M99.79 190.228c.332.142.664.283 1.03.442-.133.111-.206.22-.291.233-1.293.245-2.603.38-3.918.404-.837-.035-1.652-.012-2.064-.944-.28-.634-1.624-.429-1.244-1.584-.74-.792-.414-1.654-.127-2.485a13.71 13.71 0 0 1-1.537-1.015c-.504-.437-.43-1.381.102-2.271.121-.204.391-.359.428-.565.28-1.598.268-1.598 1.672-1.925.69-.2 1.392-.361 2.1-.483a2.798 2.798 0 0 0 2.031-1.149 3.68 3.68 0 0 1 3.301-1.407c.575.08 1.116.318 1.565.687.449.369.788.854.981 1.403l-2.593 1.071c.905.243 1.516.398 2.122.572.607.173.462.208.636 1.283.125.77-.513 1.662.33 2.312l-.464 2.052c-.285 1.263-.717 2.336-2.258 2.544a6.914 6.914 0 0 0-1.803.826M140.142 2.701a2.66 2.66 0 0 1 2.856-1.519 16.38 16.38 0 0 1 3.702.487c1.585.556 3.208.992 4.858 1.303.796.152 1.241.811 1.975.996.193.052.488.413.448.535-.313.952.609 1.69.345 2.705-.176.671.273 1.507.465 2.366-.938.542-.445 2.367-2.236 2.527-1.041-.703-2.309.006-3.572.022-.176.003-.369.135-.524.096-1.853-.483-3.701-.987-5.71-1.529l.867-.572c-.46-.02-.793-.126-.941-.007-.147.118-.118.495-.253.7-.06.092-.343.075-.512.04-.078-.014-.201-.226-.173-.282.21-.43.453-.845.705-1.302l-1.817-1.519.384-1.1c-.681.389-.71-.278-.981-.588a12.127 12.127 0 0 0-.896-.85c.443-1.147 1.319-1.382 2.409-1.424l-1.401-1.08M17.187 117.749c.285-.96.794-1.811-.155-2.57 1.253-.512 2.017-.405 2.626.623.518.657.968 1.365 1.342 2.113.27.741 1.16 1.226 1.632 1.923.307.591.545 1.216.708 1.862l-.774.458-.39-1.049-.25.036-.146 1.393c-.227.075-.757.092-1.006.366a12.659 12.659 0 0 1-5.502 3.122c-.698.15-1.406.253-2.118.308-1.73.345-2.065.464-3.393-.14a5.284 5.284 0 0 1-2.59-1.921 2.212 2.212 0 0 0-1.025-.985c-1.032-.323-1.045-.942-.768-1.772.077-.237.115-.486.114-.736-.003-1.58.079-1.721 1.4-2.152a24.236 24.236 0 0 1 6.03-.777c1.429-.094 2.867-.072 4.266-.1M44.088 99.389c.8-.93 1.725-1.744 2.748-2.419 2.017-1.153 3.963-2.45 6.053-3.447a24.91 24.91 0 0 1 6.736-2.571c.803.32-.366 1.163.606 1.447.277.081.364.838.527 1.29.404 1.12.374 1.675-.539 2.165a4.254 4.254 0 0 0-1.791 2.03c-.655 1.293-1.957 1.954-2.916 2.952a16.876 16.876 0 0 1-3.613 2.421c-.598.455-1.224.872-1.873 1.25a5.136 5.136 0 0 1-2.187.521 2.026 2.026 0 0 1-1.274-.917c-.353-.518-.964-.882-1.002-1.632-.02-.434-.48-.497-.827-.674-.397-.202-.877-.458-.153-1.048.505-.412.097-.984-.492-1.376M34.715 177.882c1.449-1.901 3.324-2.381 5.16-2.866a35.464 35.464 0 0 1 4.908-.957c1.653-.197 3.343-.854 5.098.116-1.302 1.1-3.069.502-4.617 1.477 1.96.273 3.697-.319 5.828-.273l-1.004 1.051c.316.145.644.302.965.453l-.138 1.873c-.325.1-.798.218-1.252.388-1.768.664-1.762.666-2.961 2.415-.144.19-.307.364-.488.519a9.705 9.705 0 0 1-4.62 2.693 6.585 6.585 0 0 1-2.549.064.821.821 0 0 0-.517.109.47.47 0 0 1-.461.037.475.475 0 0 1-.268-.379c-.25-.971-1.085-1.587-1.444-2.486a1.305 1.305 0 0 0-.833-.69 1.9 1.9 0 0 1-.684-1.923c.151-.285.76-.331.46-.855a7.36 7.36 0 0 0-.581-.772M94.564 128.813l.112-1.197-.982.229-2.03-3.52c.063-.169.11-.343.14-.52.175-2.208 1.737-3.29 3.486-4.07a17.52 17.52 0 0 1 4.323-1.307 4.014 4.014 0 0 1 2.877.293l-4.363.73.016.329c.247.041.498.056.748.047 1.006-.137 2.002-.333 3.009-.446.446-.049 1.039-.256.994.663-.013.283.521.595.807.891.251.26.508.514.711.721-.153.899-.921.701-1.382 1.163l1.709.008.541 1.25c-.298.174-.756.386-.144.863.661.517.827 1.062.137 1.681-.063.057-.135.19-.11.245.486 1.07-.371 1.392-1.027 1.649-1.6.491-3.259.765-4.933.816-.39.041-1.296.115-1.07-.894.014-.056-.286-.181-.443-.279-.106.195-.351.47-.293.571a.456.456 0 0 1-.514.725c-.698-.549-1.668.025-2.324-.644M136.3 132.772l-.978.566c.513.203.935.372 1.397.557-.045.817-.053 1.665-.151 2.505a5.272 5.272 0 0 1-.398 1.491c-.157.356-.77-.121-1.015.556-.159.437-1.009.577-1.622.753-.499.143-1.323-.495-1.531.502l-1.85-.389a1.885 1.885 0 0 0-.184-.022l-3.525 2.038c-.06.311-.145.616-.253.914-.199.446-.793.823-1.015.507-.493-.702-1.186.131-1.604-.386a5.498 5.498 0 0 1 .548-3.163l-2.126.366c-.13-.238-.504-.605-.438-.849.425-1.544.467-3.275 1.929-4.358a6.857 6.857 0 0 1 1.191-.874c1.004-.439 2.047-.795 3.081-1.163.509-.182 1.038-.312 1.555-.48.792-.258 1.738.138 2.44-.543a4.109 4.109 0 0 0 2.333-.059 1.86 1.86 0 0 1 1.952.83c.134.213.224.451.264.7M179.516 82.292l-.461 1.73c-.179.67-.261 1.424-1.268 1.318a.485.485 0 0 0-.357.318c-.094.825-.896.828-1.355 1.225-1.242 1.074-2.764.871-4.211.837-.822-.02-1.315-.422-1.607-1.45-.328-1.151-.369-2.493-1.259-3.464.149-.604-.659-1.35.28-1.85a.753.753 0 0 0 .274-.456c.586-2.38 2.338-3.494 4.478-4.246a8.728 8.728 0 0 1 3.309-.89c.491.027.98.09 1.463.188.158.03.402.195.412.318.086 1.04.711 1.954.796 2.965a7.707 7.707 0 0 1-.494 3.457ZM89.567 54.87l-1.595.503c.629.263.842.357 1.06.443.72.28.72.279.564 1.244-.019.121-.08.299-.028.357a1.539 1.539 0 0 1 .187 1.951 6.348 6.348 0 0 1-1.602 1.91 17.79 17.79 0 0 1-8.623 2.772 4.981 4.981 0 0 1-1.618-.41l.271-.694c-.688-.135-1.141-.42-1.09-1.25a.964.964 0 0 0-.481-.75c-.788-.298-.172-1.024-.515-1.428.86-.266.18-1.299.847-1.683.637-.364 1.208-.943 1.887-1.113a21.495 21.495 0 0 1 4.571-.753 2.506 2.506 0 0 0 1.837-.684 4.996 4.996 0 0 1 2.718-1.478c.902-.154.898-.173 1.61 1.063ZM101.924 95.904c.231.036.457.103.671.198.145.082.179.376.322.441.143.064.391-.07.571-.021.158.042.292.315.419.302.247-.036.48-.135.677-.288.136-.156.244-.334.32-.526l-1.143.02c.581-.558 1.1-1.211 1.984-.622l-.609.775c1.136.422.822-.827 1.486-1.097-.235.593.077 1.114-.169 1.708-.115.28.393.81.69 1.36l-2.255 1.627 1.17.53-.204 2.901c-.74.319-1.396.54-1.998.868-.52.284-.941.754-1.469 1.022a10.84 10.84 0 0 1-4.75.873c-.578.014-1.473-.039-1.343-1.105-.984-.265-.855-1.341-1.353-1.978a2.3 2.3 0 0 1 .27-2.875 10.507 10.507 0 0 1 4.292-2.982c.782-.366 1.546-.807 2.42-1.131M69.397 120.316l-.564.846c1.556.491 2.433-1.019 3.942-.856a4.034 4.034 0 0 1-.573.696c-.388.258-.79.496-1.203.712a2.466 2.466 0 0 0 1.691-.27c.93 1.314.93 1.314.62 2.474-.965.343-1.875.823-2.704 1.425-.795.757-1.808.77-2.662 1.252-.87.42-1.797.708-2.752.854a2.776 2.776 0 0 1-1.599-.052c-.576-.259-1.392-.754-1.45-1.227-.094-.778-.63-.753-.998-1.09a2.162 2.162 0 0 1-.878-1.819c.046-.463-.15-1.082.082-1.368a7.11 7.11 0 0 1 2.018-1.809 38.75 38.75 0 0 1 4.585-2.024c.39-.145.937.121 1.605.225l-.755.553c.991.12 1.095 1.044 1.595 1.479M3.422 91.977l.814-.85c-1.408-.832-1.459-.958-.579-2.057l-2.274.33-.313-1.151 2.404-1.387c-.804-.652-1.523.352-2.38.003.129-1.04.964-1.438 1.744-1.846.426-.224.948-.263 1.365-.501a42.707 42.707 0 0 1 5.77-2.695c.177-.08.346-.175.507-.285a3.857 3.857 0 0 1 2.912-.873c.252.849-.539 1.052-1.096 1.433.699.73 1.12-.408 1.72-.19.73.244-.591 1.4.714 1.367l-.541 2.031c-.563.47-1.125.952-1.699 1.417-.648.373-1.258.81-1.82 1.304-.512.6-1.422.85-2.116 1.309-.454.302-1 .424-1.324 1.014-.235.427-.993.485-1.089 1.204-.026.2-.468.455-.742.486-.66.024-1.32.003-1.977-.063ZM131.995 112.746c-.214.633-.001 1.169-.582 1.645l-.059-.824c-.809.019-1.62.065-2.429.041-.206-.006-.564-.212-.585-.365-.118-.833-.865-1.283-1.154-1.989a2.147 2.147 0 0 1-.034-1.068c.027-.175.336-.306.364-.481a2.008 2.008 0 0 0-.162-.703c1.221-.016 1.262.013 2.031-1.138.461-.69 1.247-.647 1.858-1.054l-.683-.577c.251-.14.516-.412.695-.364 2.228.611 2.278.622 3.887-.038-.855-.847-1.733.098-2.735-.108.115-.261.191-.674.322-.693 1.29-.165 2.585-.598 3.778.526.371.349.586.453.457.978a2.09 2.09 0 0 0 .119 1.056c.271.869.59 1.723.919 2.663l-.544.189c-.603.509.396 1.479-.852 1.255-.355-.064.267.938-.644.693-.351-.095-.876.457-1.288.695l-.79-.578-.267.225.867.804c-.658.181-1.039.288-1.538.427l-.951-1.217ZM92.97 34.607l1.764-.761-.848-.74a4.336 4.336 0 0 1 1.91-1.223c1.528-.566 3.135-.891 4.67-1.47a3.546 3.546 0 0 1 2.916.38c-.055.902-1.107.817-1.551 1.461l1.822.492-.483 3.98a10.356 10.356 0 0 1-4.432 1.65c-.883.117-1.661.644-2.63.607-.382-.015-.743-.608-1.164-.107a4.743 4.743 0 0 1-.393-.293c.581-.838-.679-1.514-.225-2.35.03-.053-.272-.304-.437-.444a6.02 6.02 0 0 1-.566-.434 3.612 3.612 0 0 1-.355-.743M59.237 70.11l-1.912.281.82.592c-.074.07-.147.198-.219.198a3.882 3.882 0 0 0-1.928.487c-.383.185-.79.317-1.208.39a2.171 2.171 0 0 0-1.631 1.244l.53.466-1.047.821c-.233-.063-.34-.064-.352-.095-.13-.398-.245-.802-.354-1.172-.537-.041-1.021-.088-1.749-.151l.993-1.142-1.319-1.167.139-.936-.832-.224a1.806 1.806 0 0 1 .81-2.495c1.048-.672 2-1.492 3.207-2.141l.452 1.359a5.814 5.814 0 0 0 2.385-.55 13.225 13.225 0 0 1 2.58-.6c.529.732-.087 1.031-.433 1.479.187.073.357.212.513.19.944-.149 1.319.127 1.143.934-.165.759-.393 1.501-.588 2.233ZM66.112 14.687l-1.554.536c.236.153.374.308.52.324.709.054 1.422.072 2.231.1l-.29 1.091-1.028.193 1.53.412a2.23 2.23 0 0 0 .053.574c.139.349.507.943.456.98-.52.371-.44 1.022-.74 1.438a1.795 1.795 0 0 1-1.958.904c-.263-.071-.46-.5-.692-.507-.191-.006-.36.465-.6.554a.763.763 0 0 1-.707-.184c-.257-.587-.788-.618-1.265-.712a.976.976 0 0 1-.894-1.03c-.01-.6-.33-.826-.831-1.087a1.478 1.478 0 0 1-.803-1.883c.1-.3.162-.61.185-.924.035-.79.466-1.68 1.072-1.764 1.483-.21 2.96-.694 4.488-.118.594.224.67.64.827 1.103ZM83.684 83.945l-.868 1.43a1.468 1.468 0 0 0 1.773.257c.421.819-.595 1.014-.67 1.685.313.148.638.305.956.46.405.65-.712.838-.406 1.574.307.737-.765.631-1.025 1.13a1.764 1.764 0 0 1-.847.618c-1.05.472-2.3.253-3.305 1-.24.178-.827-.11-1.393-.208.796-.913-.853-1.426-.188-2.331-.42-.447-1.411-.399-1.215-1.571l1.137-.315-.823-.707c.018-.679.647-.823 1.052-.94a8.017 8.017 0 0 0 3.49-2.025 1.583 1.583 0 0 1 2.332-.057ZM135.834 88.177l-1.228-2.883.421-1.576c1.049-.375 2.266-.26 3.239-.969 1.256.239 2.25-.41 3.306-.916.338-.167.846.02 1.381.061.003.291-.075.559.02.731.959 1.805-.159 2.963-1.384 3.857a12.758 12.758 0 0 1-3.532 1.728 6.457 6.457 0 0 1-2.224-.033" fill="#35B8BE"/></svg>