<svg width="313" height="359" viewBox="0 0 313 359" fill="none" xmlns="http://www.w3.org/2000/svg">
<path  fill-rule="evenodd" clip-rule="evenodd" d="M186.029 149.98C192.646 154.765 193.788 164.802 196.538 173.136C199.097 180.885 201.689 188.437 201.459 196.714C201.188 206.454 201.991 218.478 195.111 224.326C188.181 230.222 178.424 223.25 169.774 223.665C161.944 224.034 153.469 231.61 146.988 226.626C140.436 221.588 143.593 209.699 140.736 201.325C138.101 193.604 130.288 188.002 130.995 179.757C131.713 171.393 138.624 165.753 144.255 160.277C149.751 154.936 155.788 150.537 162.86 148.791C170.605 146.888 179.348 145.16 186.029 149.98Z" stroke="white"/>
<path  fill-rule="evenodd" clip-rule="evenodd" d="M196.35 125.591C207.038 133.313 208.903 149.488 213.362 162.917C217.512 175.417 221.71 187.578 221.356 200.92C220.939 216.611 222.265 235.98 211.174 245.382C200.002 254.86 184.244 243.602 170.279 244.239C157.644 244.822 143.982 257.001 133.508 248.951C122.919 240.818 127.992 221.667 123.361 208.168C119.091 195.726 106.47 186.683 107.593 173.405C108.732 159.925 119.875 150.852 128.95 142.056C137.809 133.466 147.542 126.392 158.951 123.607C171.451 120.553 185.553 117.792 196.35 125.591Z" stroke="white"/>
<path  fill-rule="evenodd" clip-rule="evenodd" d="M206.349 101.965C220.983 112.536 223.544 134.651 229.66 153.023C235.348 170.111 241.105 186.762 240.632 204.987C240.075 226.457 241.902 252.931 226.734 265.783C211.454 278.729 189.879 263.32 170.77 264.184C153.478 264.963 134.793 281.602 120.454 270.585C105.961 259.443 112.881 233.27 106.534 214.808C100.681 197.784 83.4016 185.404 84.9263 167.247C86.4738 148.815 101.714 136.431 114.127 124.404C126.24 112.67 139.557 103.007 155.169 99.2119C172.266 95.0446 191.572 91.2921 206.349 101.965Z" stroke="white"/>
<path  fill-rule="evenodd" clip-rule="evenodd" d="M215.38 80.6168C233.577 93.7621 236.773 121.242 244.381 144.073C251.46 165.324 258.624 186.009 258.043 208.665C257.359 235.337 259.645 268.236 240.789 284.201C221.797 300.282 194.969 281.12 171.213 282.176C149.714 283.136 126.492 303.809 108.659 290.107C90.6362 276.258 99.2297 243.739 91.3308 220.795C84.0461 199.635 62.5613 184.241 64.4494 161.682C66.3654 138.785 85.3082 123.393 100.735 108.457C115.792 93.8792 132.341 81.8775 151.749 77.1677C173.007 71.9981 197.003 67.341 215.38 80.6168Z" stroke="white"/>
<path  fill-rule="evenodd" clip-rule="evenodd" d="M223.765 60.8006C245.271 76.3344 249.057 108.801 258.051 135.777C266.42 160.876 274.891 185.313 274.21 212.077C273.409 243.585 276.118 282.461 253.841 301.309C231.402 320.303 199.696 297.654 171.624 298.909C146.22 300.033 118.785 324.445 97.7092 308.247C76.409 291.882 86.5551 253.468 77.2163 226.364C68.6059 201.361 43.2111 183.169 45.4372 156.521C47.6971 129.466 70.0764 111.288 88.2984 93.653C106.087 76.4354 125.64 62.2612 148.573 56.7037C173.692 50.6125 202.048 45.1161 223.765 60.8006Z" stroke="white"/>
<path  fill-rule="evenodd" clip-rule="evenodd" d="M232.473 40.2193C257.415 58.2298 261.809 95.875 272.245 127.152C281.955 156.25 291.781 184.59 290.995 215.619C290.076 252.157 293.224 297.219 267.393 319.076C241.376 341.091 204.604 314.821 172.05 316.261C142.591 317.56 110.78 345.861 86.3374 327.075C61.6346 308.097 73.3926 263.559 62.5579 232.131C52.5668 203.146 23.1155 182.044 25.6922 151.148C28.3071 119.788 54.2576 98.7128 75.3883 78.2686C96.0159 58.316 118.685 41.8847 145.277 35.4469C174.406 28.3919 207.286 22.0225 232.473 40.2193Z" stroke="white"/>
<path  fill-rule="evenodd" clip-rule="evenodd" d="M243.115 15.0585C272.254 36.1094 277.397 80.0803 289.592 116.614C300.942 150.609 312.426 183.711 311.515 219.952C310.444 262.625 314.13 315.267 283.955 340.793C253.566 366.495 210.599 335.811 172.571 337.483C138.156 338.996 100.995 372.037 72.438 350.098C43.5753 327.922 57.3053 275.905 44.6426 239.193C32.965 205.331 -1.44417 180.686 1.56119 144.591C4.6106 107.961 34.9251 83.3529 59.6076 59.4786C83.7013 36.1746 110.184 16.9945 141.251 9.47098C175.276 1.23418 213.688 -6.19208 243.115 15.0585Z" stroke="white"/>
</svg>
