<svg aria-hidden="true" style="position: absolute; width: 0; height: 0; overflow: hidden;" version="1.1" xmlns="http://www.w3.org/2000/svg" xmlns:xlink="http://www.w3.org/1999/xlink">
<defs>
<symbol version="1.0" xmlns="http://www.w3.org/2000/svg" preserveAspectRatio="xMidYMid meet" viewBox="0 0 512.000000 512.000000" id="icon-heart">
    <g transform="translate(0.000000,512.000000) scale(0.100000,-0.100000)"  stroke="none">
      <path d="M1175 4879 c-476 -57 -853 -328 -1033 -744 -129 -299 -177 -741 -112
-1049 84 -403 316 -837 714 -1335 325 -406 827 -907 1291 -1286 156 -128 215
-165 320 -201 71 -25 94 -28 205 -28 111 0 134 3 205 28 44 15 99 39 123 52
89 53 394 307 649 542 118 109 138 146 131 237 -11 127 -152 211 -272 161 -18
-7 -97 -73 -177 -146 -155 -143 -444 -388 -511 -433 -79 -53 -184 -60 -264
-19 -133 69 -736 615 -1036 938 -670 723 -1008 1320 -1008 1784 0 289 73 575
191 747 138 200 355 320 640 354 203 23 419 -8 581 -85 245 -116 454 -368 548
-660 16 -48 34 -80 61 -107 108 -108 285 -60 334 92 27 82 129 276 188 354
239 320 558 453 962 404 265 -33 479 -150 611 -336 177 -247 251 -700 169
-1033 -76 -308 -287 -682 -619 -1095 -61 -76 -100 -135 -107 -160 -24 -86 13
-180 88 -226 50 -32 152 -34 201 -4 68 41 373 446 523 695 231 385 349 740
349 1055 0 413 -114 798 -307 1040 -66 81 -188 193 -276 252 -153 103 -324
168 -537 205 -113 19 -414 16 -522 -5 -342 -68 -640 -261 -857 -554 -30 -40
-55 -73 -56 -73 -2 0 -23 28 -48 63 -214 297 -503 489 -846 558 -113 23 -375
33 -496 18z"></path>
    </g>
  </symbol>
  <symbol version="1.0" xmlns="http://www.w3.org/2000/svg" preserveAspectRatio="xMidYMid meet" viewBox="0 0 512.000000 512.000000" id="icon-cart">
    <g transform="translate(0.000000,512.000000) scale(0.100000,-0.100000)"  stroke="none">
      <path d="M132 5109 c-47 -14 -109 -79 -123 -131 -23 -88 12 -182 85 -228 26
-16 62 -24 136 -31 193 -18 332 -81 460 -209 81 -80 132 -165 169 -279 16 -49
49 -323 141 -1166 66 -606 120 -1109 120 -1116 0 -8 -21 -25 -47 -39 -80 -41
-195 -164 -237 -252 -118 -245 -74 -511 113 -699 119 -119 264 -178 434 -179
63 0 68 -2 62 -19 -11 -36 -25 -136 -25 -181 1 -262 206 -511 465 -565 407
-85 772 261 705 668 -5 33 -12 67 -15 78 -6 18 6 19 425 19 419 0 431 -1 425
-19 -3 -11 -10 -45 -15 -78 -31 -189 28 -371 165 -508 233 -232 597 -232 830
0 314 314 183 839 -245 982 -52 17 -133 18 -1456 23 l-1401 5 -39 27 c-67 47
-89 90 -89 173 0 62 4 77 27 111 15 21 44 50 65 64 l37 25 1380 5 c1362 6
1382 6 1451 27 272 81 449 224 591 478 34 61 39 78 39 136 0 87 -33 139 -108
175 -66 31 -110 30 -174 -1 -52 -26 -79 -58 -123 -145 -13 -25 -55 -77 -94
-116 -77 -77 -160 -123 -254 -143 -37 -8 -421 -11 -1272 -11 l-1218 0 -6 38
c-3 20 -42 372 -86 782 -44 410 -83 762 -86 783 l-6 37 1666 0 c1019 0 1666
-4 1666 -9 0 -5 -23 -119 -51 -253 -53 -258 -54 -283 -17 -349 22 -39 84 -84
130 -94 82 -19 180 30 216 107 11 23 55 213 98 421 73 357 77 381 65 425 -16
60 -50 104 -98 128 -37 18 -96 19 -1875 22 l-1838 2 -4 23 c-3 12 -10 63 -16
112 -45 362 -271 676 -608 844 -170 86 -426 133 -540 100z m1946 -4344 c160
-67 160 -283 0 -350 -47 -19 -89 -19 -136 0 -157 66 -161 275 -7 346 49 23 94
24 143 4z m1980 0 c160 -67 160 -283 0 -350 -47 -19 -89 -19 -136 0 -157 66
-161 275 -7 346 49 23 94 24 143 4z"></path>
    </g>
  </symbol>
  <symbol version="1.0" xmlns="http://www.w3.org/2000/svg" preserveAspectRatio="xMidYMid meet" viewBox="0 0 512.000000 512.000000" id="icon-bag">
    <g transform="translate(0.000000,512.000000) scale(0.100000,-0.100000)"  stroke="none">
      <path d="M805 5113 c-38 -10 -91 -54 -168 -141 -243 -271 -423 -578 -544 -927
-42 -120 -41 -171 6 -239 49 -71 80 -80 267 -84 l161 -3 -44 -112 c-118 -300
-213 -663 -268 -1032 -47 -316 -50 -396 -50 -1175 l0 -735 28 -90 c80 -259
283 -462 542 -542 l90 -28 1625 -3 c1221 -2 1636 0 1668 9 34 9 115 73 387
306 192 164 368 322 396 356 124 152 210 438 169 562 -20 61 -74 113 -136 131
-49 14 -59 14 -108 0 -38 -11 -64 -27 -89 -55 -39 -43 -50 -76 -65 -188 -11
-81 -40 -149 -86 -201 -17 -19 -93 -89 -168 -154 l-138 -119 0 518 c0 285 5
592 10 683 23 379 83 756 181 1138 43 167 107 389 118 410 7 13 16 -34 46
-262 30 -224 37 -330 43 -682 l7 -361 27 -40 c41 -62 90 -88 168 -88 78 0 127
26 168 88 l27 40 3 276 c4 276 -6 481 -34 726 -56 498 -203 1154 -390 1739
-65 203 -88 236 -188 270 -42 14 -221 16 -1844 15 -988 -1 -1806 -4 -1817 -6z
m954 -505 c-69 -112 -185 -333 -226 -435 l-22 -53 -481 0 -480 0 36 73 c78
156 186 319 300 456 l59 71 442 0 442 0 -70 -112z m847 14 c-255 -393 -422
-804 -485 -1192 l-17 -105 -198 -3 -197 -2 6 37 c42 243 122 519 201 693 99
216 226 428 352 588 l65 82 168 0 168 0 -63 -98z m1341 91 c-3 -5 -23 -39 -46
-76 -50 -82 -153 -287 -211 -419 l-42 -98 -434 0 c-239 0 -434 2 -434 5 0 28
211 357 316 492 l79 102 388 1 c214 0 386 -3 384 -7z m352 -463 c2 -289 -32
-511 -134 -864 -134 -471 -200 -787 -244 -1176 -34 -292 -41 -505 -41 -1171
l0 -639 -1502 2 -1503 3 -58 23 c-111 45 -195 133 -234 246 -17 47 -18 104
-18 771 0 792 3 837 66 1190 63 350 156 668 289 983 l44 102 209 0 c194 0 208
-1 203 -17 -25 -80 -70 -366 -82 -515 -9 -125 13 -181 94 -237 l37 -26 467 0
466 0 43 30 c65 46 80 86 96 249 16 160 42 301 80 429 l26 87 596 0 c358 0
610 4 630 10 54 15 106 57 129 103 11 23 57 125 102 226 97 221 107 241 173
354 l52 88 7 -53 c3 -29 6 -118 7 -198z"></path>
    </g>
  </symbol>
  <symbol version="1.0" xmlns="http://www.w3.org/2000/svg" preserveAspectRatio="xMidYMid meet" viewBox="0 0 512.000000 512.000000" id="icon-basket">
    <g transform="translate(0.000000,512.000000) scale(0.100000,-0.100000)"  stroke="none">
      <path d="M2075 5109 c-16 -4 -45 -21 -63 -36 -17 -15 -270 -352 -560 -748
l-529 -720 -389 -5 c-388 -5 -389 -5 -427 -29 -21 -13 -50 -42 -65 -64 l-27
-41 0 -466 0 -466 27 -41 c45 -68 87 -87 203 -91 l101 -4 103 -867 c57 -476
110 -893 119 -926 19 -78 69 -187 120 -261 40 -59 140 -161 198 -201 56 -40
170 -92 250 -115 l79 -23 1365 0 1365 0 79 23 c160 46 318 151 414 273 99 126
163 291 166 421 1 70 -2 80 -29 120 -78 112 -245 117 -323 9 -17 -24 -34 -65
-42 -103 -30 -147 -108 -250 -238 -311 l-67 -32 -1285 -3 c-935 -2 -1303 0
-1352 8 -132 23 -253 126 -298 254 -15 41 -48 285 -120 887 -55 456 -100 834
-100 839 0 6 585 11 1568 12 l1567 3 38 24 c21 13 50 42 65 64 23 34 27 52 27
107 0 55 -4 73 -27 107 -15 22 -44 51 -65 64 l-38 24 -1737 3 -1738 2 0 200 0
200 2160 0 2160 0 0 -200 0 -200 -67 0 c-38 0 -85 -5 -106 -11 -52 -14 -110
-75 -125 -130 -15 -55 -112 -909 -112 -985 0 -168 183 -259 318 -157 63 47 69
72 112 460 22 197 43 372 45 389 l5 32 98 4 c111 4 154 23 197 86 l25 37 0
475 0 475 -25 37 c-13 20 -41 47 -62 59 -38 24 -39 24 -423 27 l-385 4 -535
730 c-294 401 -547 738 -561 749 -14 10 -47 24 -73 31 -144 38 -278 -99 -237
-244 9 -30 146 -225 461 -653 l448 -610 -573 -3 c-316 -1 -835 -1 -1155 0
l-581 3 441 600 c243 330 447 611 454 625 80 154 -70 329 -239 279z"></path>
      <path d="M1702 1989 c-46 -14 -109 -80 -122 -128 -7 -28 -10 -186 -8 -484 l3
-442 24 -38 c13 -21 42 -50 64 -65 34 -23 52 -27 107 -27 55 0 73 4 107 27 22
15 51 44 64 65 l24 38 0 465 0 465 -24 38 c-47 76 -151 113 -239 86z"></path>
      <path d="M2502 1989 c-46 -14 -109 -80 -122 -128 -7 -28 -10 -186 -8 -484 l3
-442 24 -38 c13 -21 42 -50 64 -65 34 -23 52 -27 107 -27 55 0 73 4 107 27 22
15 51 44 64 65 l24 38 0 465 0 465 -24 38 c-47 76 -151 113 -239 86z"></path>
      <path d="M3302 1989 c-46 -14 -109 -80 -122 -128 -7 -28 -10 -186 -8 -484 l3
-442 24 -38 c13 -21 42 -50 64 -65 34 -23 52 -27 107 -27 55 0 73 4 107 27 22
15 51 44 64 65 l24 38 0 465 0 465 -24 38 c-47 76 -151 113 -239 86z"></path>
    </g>
  </symbol>





<symbol enable-background="new 0 0 56.693 56.693" id="icon-apple" version="1.1" xml:space="preserve" xmlns="http://www.w3.org/2000/svg" xmlns:xlink="http://www.w3.org/1999/xlink" viewBox="0 0 56.693 56.693">
<g>
  <path d="M41.777,30.517c-0.062-6.232,5.082-9.221,5.312-9.372c-2.891-4.227-7.395-4.807-8.998-4.873   c-3.83-0.389-7.477,2.256-9.42,2.256c-1.939,0-4.941-2.199-8.117-2.143c-4.178,0.062-8.029,2.43-10.179,6.17   c-4.339,7.527-1.11,18.682,3.118,24.791c2.067,2.986,4.532,6.346,7.766,6.223c3.117-0.123,4.293-2.016,8.061-2.016   s4.826,2.016,8.123,1.953c3.352-0.061,5.477-3.043,7.527-6.041c2.373-3.469,3.35-6.828,3.408-6.998   C48.305,40.433,41.844,37.958,41.777,30.517z"></path>
  <path d="M35.582,12.229c1.715-2.082,2.877-4.975,2.561-7.855c-2.475,0.1-5.471,1.645-7.248,3.725   c-1.592,1.846-2.984,4.785-2.611,7.613C31.045,15.926,33.861,14.307,35.582,12.229z"></path>
</g>
<symbol id="icon-google" version="1.1" xml:space="preserve" xmlns="http://www.w3.org/2000/svg" xmlns:xlink="http://www.w3.org/1999/xlink" viewBox="0 0 150 150">
<g>
  <path xmlns="http://www.w3.org/2000/svg" fill="#4280EF" d="M120,76.1c0-3.1-0.3-6.3-0.8-9.3H75.9v17.7h24.8c-1,5.7-4.3,10.7-9.2,13.9l14.8,11.5 C115,101.8,120,90,120,76.1L120,76.1z"/><path xmlns="http://www.w3.org/2000/svg" fill="#34A353" d="M75.9,120.9c12.4,0,22.8-4.1,30.4-11.1L91.5,98.4c-4.1,2.8-9.4,4.4-15.6,4.4c-12,0-22.1-8.1-25.8-18.9 L34.9,95.6C42.7,111.1,58.5,120.9,75.9,120.9z"/><path xmlns="http://www.w3.org/2000/svg" fill="#F6B704" d="M50.1,83.8c-1.9-5.7-1.9-11.9,0-17.6L34.9,54.4c-6.5,13-6.5,28.3,0,41.2L50.1,83.8z"/><path xmlns="http://www.w3.org/2000/svg" fill="#E54335" d="M75.9,47.3c6.5-0.1,12.9,2.4,17.6,6.9L106.6,41C98.3,33.2,87.3,29,75.9,29.1c-17.4,0-33.2,9.8-41,25.3 l15.2,11.8C53.8,55.3,63.9,47.3,75.9,47.3z"/>
	</g>
</symbol>
</defs>
</svg>
